<svg width="16" height="16" viewBox="0 0 16 16" fill="none" xmlns="http://www.w3.org/2000/svg">
<path d="M15.4301 5.30249L10.7094 4.61649L8.60076 0.341818C8.53945 0.237724 8.45204 0.151434 8.34716 0.0914844C8.24228 0.0315343 8.12356 0 8.00276 0C7.88195 0 7.76324 0.0315343 7.65836 0.0914844C7.55348 0.151434 7.46606 0.237724 7.40476 0.341818L5.29209 4.61649L0.571426 5.30249C0.448319 5.32026 0.332639 5.37211 0.237463 5.45219C0.142287 5.53227 0.0714116 5.63737 0.0328492 5.75563C-0.00571322 5.87388 -0.0104244 6.00056 0.0192482 6.12136C0.0489209 6.24215 0.111794 6.35223 0.200759 6.43915L3.61743 9.76849L2.81143 14.4705C2.79042 14.5931 2.80413 14.7191 2.85101 14.8343C2.89789 14.9496 2.97607 15.0494 3.07671 15.1225C3.17735 15.1956 3.29643 15.2391 3.4205 15.248C3.54456 15.257 3.66866 15.231 3.77876 15.1732L8.00076 12.9538L12.2228 15.1732C12.3329 15.231 12.457 15.257 12.581 15.248C12.7051 15.2391 12.8242 15.1956 12.9248 15.1225C13.0254 15.0494 13.1036 14.9496 13.1505 14.8343C13.1974 14.7191 13.2111 14.5931 13.1901 14.4705L12.3841 9.76849L15.8008 6.43915C15.8897 6.35232 15.9526 6.24234 15.9823 6.12165C16.0121 6.00095 16.0075 5.87435 15.9691 5.75613C15.9306 5.63791 15.8599 5.53279 15.7649 5.45263C15.6699 5.37246 15.5544 5.32046 15.4314 5.30249H15.4301Z" fill="#FCD420"/>
</svg>
